<svg xmlns="http://www.w3.org/2000/svg" version="1.1" xmlns:xlink="http://www.w3.org/1999/xlink" viewBox="0 0 700 700" style="overflow: hidden; display: block;" width="700" height="700"><defs><linearGradient id="two-573" x1="350" y1="-350" x2="350" y2="350" spreadMethod="pad" gradientUnits="userSpaceOnUse"><stop offset="0%" stop-color="hsl(30, 100%, 50%)" stop-opacity="1"></stop><stop offset="100%" stop-color="hsl(30, 100%, 70%)" stop-opacity="1"></stop></linearGradient></defs><g id="two-0" transform="matrix(1 0 0 1 0 0)" opacity="1"><path transform="matrix(1 0 0 1 350 350)" id="two-572" d="M 212.473021 52.369896 C 202.90625 87.724941 268.963719 108.056563 274.783876 144.217703 C 279.104865 171.064383 272.233631 205.031948 252.255438 223.478817 C 230.962872 243.139311 195.096075 239.562033 166.136894 240.690844 C 140.092225 241.706049 111.576022 241.776564 87.715548 231.286893 C 61.220649 219.639061 49.53144 168.514894 21.149589 174.182537 C -18.8382 182.167798 6.103721 287.747484 -34.543082 284.487873 C -70.871906 281.574537 -35.303159 195.383592 -67.972186 179.227923 C -91.265049 167.709007 -116.098101 206.107148 -142.08218 205.841572 C -164.357294 205.613905 -189.445513 197.547526 -205.134131 181.732981 C -220.499025 166.244759 -230.071052 141.535838 -228.25084 119.795281 C -225.894221 91.647916 -177.079507 72.689278 -185.404157 45.69802 C -195.660522 12.443507 -256.955554 25.678148 -280.443601 0 C -298.565786 -19.811957 -323.45798 -53.519986 -309.04243 -76.172118 C -283.694688 -116.002743 -209.545987 -68.145076 -166.411847 -87.339675 C -152.800552 -93.396672 -138.621158 -104.367107 -133.664706 -118.416596 C -123.323153 -147.730612 -148.63247 -180.789853 -146.179545 -211.777632 C -143.542613 -245.089959 -140.039314 -284.473384 -117.103123 -308.775558 C -98.725939 -328.247211 -67.432779 -333.233321 -40.861473 -336.524501 C -14.288143 -339.815933 19.911557 -346.084938 39.85252 -328.215037 C 75.635076 -296.148848 29.667809 -211.211266 70.493049 -185.874896 C 90.752305 -173.30189 120.013956 -215.740509 140.537574 -203.603827 C 159.401963 -192.448332 143.521241 -156.396698 157.278173 -139.336303 C 170.068201 -123.474997 197.515961 -125.406324 212.372248 -111.461555 C 226.78479 -97.933304 229.590617 -74.589023 242.74005 -59.83005 C 264.531877 -35.370822 325.23506 -32.593959 321.953081 -0.000001 C 317.94071 39.847627 222.933769 13.711064 212.473021 52.369896 Z " fill="url(#two-573)" stroke="undefined" stroke-width="1" stroke-opacity="1" fill-opacity="1" visibility="visible" stroke-linecap="butt" stroke-linejoin="miter" stroke-miterlimit="4"></path></g></svg>